P3
# in.ppm
3 2
60
13 13 13   23 23 23   17 17 17
13 13 13   23 23 23   17 17 17
